<svg width="100" height="64" viewBox="0 0 100 64" fill="none" xmlns="http://www.w3.org/2000/svg">
<g clip-path="url(#clip0_18:8)">
<g filter="url(#filter0_ddd_18:8)">
<path d="M0.59658 35H5.99008L8.48045 40.7479L8.61226 40.9863L12.6912 49.3254L12.7675 49.4221L19.3334 35H23.4435H24.7407L24.7615 36.4367L23.8597 36.4816L23.2285 36.5991L22.729 36.8478L22.5764 37.0654L22.455 37.3245L22.3128 37.9429L22.2365 38.993L22.6076 51.3601L22.7498 52.3342L22.9441 52.9111L23.0863 53.1253L23.2805 53.298L23.5441 53.4189L24.1199 53.5917L24.935 53.7126V55H16.7146V53.6987L17.7899 53.5157L18.324 53.298L18.5391 53.1253L18.6813 52.9111L18.7784 52.6279L18.8443 52.3135L18.9206 49.4428L18.8998 40.8239L12.1917 55H11.4391L11.2761 54.5658L4.64431 40.8895L4.58881 41.0623L4.28358 51.9577L4.52291 52.8248L4.66512 53.0631L4.83854 53.2566L5.338 53.5157L5.95886 53.6573L6.31959 53.678C6.42827 53.678 6.49301 53.7356 6.51382 53.8507V55H1.54348H0V53.6987H0.260137L0.891402 53.5813L1.17582 53.4846L1.41514 53.3429L1.60938 53.1598L1.99091 52.4102L2.06722 52.12L2.8615 39.4041L2.83722 37.9221L2.6638 37.3452L2.32736 36.9342L1.8487 36.6543L1.25212 36.5023L0.575769 36.416V35H0.59658ZM26.0345 35H40.2033H40.2449L40.616 40.0121L39.4194 40.1296L39.3882 40.0743L39.0066 38.6476L38.5696 37.8116L38.1915 37.4005L37.8759 37.1932L37.3209 36.9791L35.7671 36.72L32.961 36.6854L32.5032 36.7407L32.1668 36.9238L32.0558 37.0758L31.9587 37.4972L31.9378 43.9191L32.0558 43.9744L34.6293 42.8019C34.814 42.7178 35.006 42.6509 35.2029 42.6021L35.3106 42.5754C35.5967 42.5045 35.8927 42.4819 36.1862 42.5088V42.5088C36.3688 42.5255 36.549 42.5611 36.7242 42.6151L36.8527 42.6548L37.0186 42.7274C37.27 42.8374 37.5064 42.979 37.7222 43.1486L37.8922 43.2822C37.946 43.3244 37.9954 43.3718 38.0399 43.4237V43.4237C38.0762 43.466 38.109 43.5112 38.1381 43.5588L38.2599 43.758C38.3436 43.895 38.4129 44.0402 38.4668 44.1914L38.4887 44.2529C38.5584 44.4483 38.5961 44.6535 38.6004 44.8608V44.8608C38.603 44.9835 38.5939 45.1062 38.5731 45.2271L38.5633 45.2844C38.5399 45.4215 38.4995 45.5553 38.4433 45.6826V45.6826C38.3981 45.7848 38.3429 45.8824 38.2785 45.9738L38.2615 45.9978C38.185 46.1064 38.0978 46.207 38.0012 46.2982L37.651 46.6287C37.6276 46.6508 37.6017 46.6702 37.574 46.6866L37.2737 46.8633C37.212 46.8996 37.1325 46.874 37.1036 46.8086V46.8086C37.0896 46.7769 37.0901 46.7407 37.1048 46.7094L37.1307 46.6543C37.1486 46.6163 37.1756 46.5833 37.2094 46.5583L37.4527 46.3787L37.7548 46.0934C37.8209 46.031 37.8733 45.9554 37.9087 45.8716V45.8716C37.9215 45.8412 37.932 45.8099 37.9401 45.778L37.983 45.6087C38.0055 45.5198 37.9932 45.4255 37.9485 45.3453V45.3453C37.9147 45.2848 37.8641 45.2353 37.8028 45.2028L37.7833 45.1925C37.7504 45.175 37.7153 45.1619 37.6791 45.1534L37.4172 45.092C37.3532 45.077 37.2878 45.0695 37.2221 45.0695V45.0695C37.1155 45.0695 37.0099 45.0894 36.9106 45.1282L32.961 46.6723L31.9378 46.9521V50.5586L32.0454 51.4913L32.2639 52.3031L32.3402 52.4862L32.5587 52.7799L32.8605 52.9975L33.2316 53.1598L33.6547 53.2358L36.1451 53.2117L38.1672 52.8973L38.9303 52.6382L39.409 52.3239L40.016 51.6537L40.5952 50.6795L41.06 49.5845C41.0692 49.5269 41.1097 49.4877 41.1814 49.467L42.2913 49.7675L41.1918 54.2515L41.1363 54.7075L40.942 55H26.0345V53.8956L26.0865 53.6884L26.8253 53.6366L27.2519 53.5364L27.6092 53.374L27.8832 53.1357L28.0982 52.6071L28.2404 51.9681L28.3167 50.7555L28.2855 45.6222L27.9456 45.1869L27.6647 44.6895L27.5225 44.3198L27.4045 43.6393L27.3802 43.1522L27.5016 42.4924L27.6647 42.1332L27.8832 41.8395L28.2855 41.463V40.1745L28.3167 39.1761L28.2612 38.2123L28.0011 37.1829L27.8069 36.8582L27.6647 36.7407L27.3282 36.568L26.9155 36.4678L26.0345 36.3814V35ZM28.2612 41.9915L27.9595 42.3922L27.8589 42.6548L27.8069 42.9242L27.7826 43.2489L27.8277 43.5633L27.904 43.8224L28.0462 44.0193L28.2196 44.2024L28.2855 44.0193L28.2612 41.9915ZM43.3977 35H51.8158H51.8608V36.416L51.2192 36.5023L50.8793 36.5991L50.5879 36.7303C50.5139 36.7948 50.4561 36.8812 50.4145 36.9894L50.3278 37.3452L50.3486 37.746L50.5671 38.3954L54.0252 44.5582L57.0566 38.8514L57.3931 37.8565L57.4174 37.4661L57.3723 37.0654L57.2197 36.7925C57.1549 36.7211 57.0682 36.6601 56.9595 36.6094L56.6231 36.5127L55.8288 36.4367L55.808 35H62.4397V36.3918L62.3842 36.4367L61.9611 36.4574L61.5795 36.5334L60.9934 36.7925L60.4939 37.1829L59.0267 39.2107L54.9686 46.5411C54.9247 46.6424 54.8992 46.7621 54.8923 46.9003V51.2633L54.9686 52.0544L55.0553 52.4102L55.2738 53.0389L55.4923 53.2773L55.7733 53.4397L56.0889 53.5606L56.4496 53.6366L57.1988 53.678L57.2439 53.7333V55H49.8491H48.9577C48.9068 54.8918 48.8814 54.5485 48.8814 54.4035L48.9022 53.678L49.8387 53.6124L50.1856 53.5157L50.4908 53.374L50.7509 53.2013L50.9244 52.9422L51.0666 52.6486L51.2192 51.9335L51.24 46.7138L46.1413 38.2572L45.1285 37.0862L44.8684 36.8927L44.3134 36.5991L43.977 36.5023L43.4428 36.4367L43.3977 35ZM63.1265 35H71.2393L71.2601 36.3193C71.2462 36.3837 71.1988 36.4229 71.1179 36.4367L70.4103 36.4816L69.8137 36.6302L69.4981 36.8374L69.3767 36.9583L69.2137 37.3038L69.1166 37.7045L69.0195 38.613V51.4257L69.1721 52.5311L69.401 53.0631L69.6299 53.3222L69.7929 53.4189L70.3687 53.6124L71.0624 53.678L71.2601 53.7333V55H71.0624H63.1785L63.1265 54.59V53.8197C63.1334 53.7483 63.1727 53.701 63.2444 53.678L63.7231 53.6573L64.3543 53.5157L64.8122 53.2462L65.0272 52.9422L65.2457 52.4102L65.3429 51.7608V38.8859L65.2908 38.202L65.1486 37.5836L64.9301 37.0551L64.67 36.7925L64.3543 36.6094L63.7578 36.4574L63.2652 36.4367C63.1935 36.4298 63.1473 36.3907 63.1265 36.3193V35ZM83.3512 35L85 35.6249L86.2023 36.2847L86.9064 36.7407L87.3192 37.1829L87.5724 37.5214L87.7458 37.9221L88.0268 38.7858L88.1031 39.5872L88.0719 40.6823L87.9296 41.4181L87.7111 42.0675L87.3088 42.8033L86.7989 43.4666L86.0359 44.1471L85.3422 44.6031L84.3745 45.0591L85.3214 46.1403L94.2597 59.6784L96.2471 62.0413L96.7049 62.4282L97.2495 62.7529L97.468 62.8186L97.7281 62.8289L97.9328 62.7771L98.075 62.6355L98.1964 62.4524L98.4357 61.834L98.5744 61.6924L98.7721 61.6164H98.9768L99.2404 61.6924L99.4138 61.8133L99.6948 62.1173L99.9029 62.4939L100 62.9498L99.9792 63.2297L99.9029 63.4369L99.7815 63.6096L99.4554 63.8687L99.2404 63.9551L99.0011 64H98.5328L97.6518 63.8169L94.4539 62.6804L93.5313 62.1588L92.8896 61.6406L91.3877 59.9721L83.9062 48.1439L82.9836 47.0385L82.3835 46.4858L82.0263 46.2613L81.3846 46.0436L81.1557 46.0643V46.0229H79.4145L79.3729 46.2371L79.4249 51.9231L79.5359 52.424L79.751 53.0631L79.8932 53.2255L80.2296 53.4397L80.677 53.5813L81.5997 53.6573V54.6867C81.558 54.7512 81.4898 55 81.395 55H73.4452V53.7644C73.4892 53.6999 73.5539 53.6642 73.6395 53.6573L74.4338 53.5813L74.8465 53.4397L75.2176 53.2013L75.3356 53.0389L75.4882 52.6382L75.6755 51.6641V38.5059L75.6096 38.0085L75.4362 37.3245L75.228 36.9445L75.0754 36.8063L74.7078 36.5991L74.2499 36.4816L73.4452 36.4056V35H83.3512ZM79.6538 36.8582C79.5452 36.8651 79.4515 36.9088 79.3729 36.9894V44.5824C79.4654 44.633 79.5706 44.6618 79.6885 44.6687L80.795 44.5582L82.3072 44.0815L83.0703 43.6289L83.4935 43.2386L83.9513 42.5028L84.1663 41.9293L84.3086 41.2661L84.3536 40.5095L84.1906 39.0794L84.09 38.7858L83.6461 38.0292L83.4484 37.822L82.9836 37.4869L82.4494 37.2071L81.839 36.9998L80.4377 36.8271L79.6538 36.8582Z" fill="white"/>
<path fill-rule="evenodd" clip-rule="evenodd" d="M44.0501 15.3563C41.3122 11.599 37.5978 9.17397 36.0574 8.27067C36.0175 8.24765 35.9768 8.22941 35.9351 8.21638C35.6108 8.11346 35.2492 8.30932 35.179 8.66152C34.4138 12.5335 34.037 16.6214 34.8924 20.5129C35.7838 24.5665 38.1151 27.8179 41.8051 29.7096C39.7878 26.704 38.4268 23.5802 37.5376 20.0813C37.4314 19.6626 37.8688 19.7825 37.9928 20.0461C39.3282 22.9045 40.9146 25.3968 43.026 27.7532C43.183 27.9282 43.346 28.0954 43.5094 28.2587C42.6627 25.4763 42.0171 21.1987 43.6465 16.4247C43.7692 16.0651 43.9057 15.7094 44.0501 15.3563ZM49.1982 30.0736C52.4282 29.1264 55.4714 27.2351 57.8499 24.8644C61.5313 21.1961 63.6735 16.2844 64.7292 11.2494C65.4485 7.81902 65.7238 4.26576 65.5426 0.764185C65.5244 0.408512 65.2846 0.134483 64.979 0.0380735C64.8073 -0.0166454 64.6148 -0.0149083 64.4288 0.0597874C39.378 10.1163 43.5519 25.2835 45.405 29.6719C45.64 29.4691 45.8984 29.2345 46.1824 28.974C47.0113 28.1836 47.8056 27.3572 48.5682 26.5021C54.1547 20.2398 58.4504 12.9587 62.5163 5.65285C62.577 5.54341 62.7088 5.50606 62.8133 5.56382C62.9122 5.61897 62.9512 5.74057 62.9061 5.84219C61.4285 9.19177 59.2859 14.6441 56.5262 19.4081C53.177 25.1897 49.281 30.0492 49.1982 30.0736Z" fill="white"/>
</g>
</g>
<defs>
<filter id="filter0_ddd_18:8" x="-30" y="-15" width="160" height="124" filterUnits="userSpaceOnUse" color-interpolation-filters="sRGB">
<feFlood flood-opacity="0" result="BackgroundImageFix"/>
<feColorMatrix in="SourceAlpha" type="matrix" values="0 0 0 0 0 0 0 0 0 0 0 0 0 0 0 0 0 0 127 0" result="hardAlpha"/>
<feOffset dy="15"/>
<feGaussianBlur stdDeviation="15"/>
<feColorMatrix type="matrix" values="0 0 0 0 0 0 0 0 0 0 0 0 0 0 0 0 0 0 0.05 0"/>
<feBlend mode="normal" in2="BackgroundImageFix" result="effect1_dropShadow_18:8"/>
<feColorMatrix in="SourceAlpha" type="matrix" values="0 0 0 0 0 0 0 0 0 0 0 0 0 0 0 0 0 0 127 0" result="hardAlpha"/>
<feOffset dy="3"/>
<feGaussianBlur stdDeviation="3"/>
<feColorMatrix type="matrix" values="0 0 0 0 0 0 0 0 0 0 0 0 0 0 0 0 0 0 0.05 0"/>
<feBlend mode="normal" in2="effect1_dropShadow_18:8" result="effect2_dropShadow_18:8"/>
<feColorMatrix in="SourceAlpha" type="matrix" values="0 0 0 0 0 0 0 0 0 0 0 0 0 0 0 0 0 0 127 0" result="hardAlpha"/>
<feOffset dy="1"/>
<feGaussianBlur stdDeviation="1"/>
<feColorMatrix type="matrix" values="0 0 0 0 0 0 0 0 0 0 0 0 0 0 0 0 0 0 0.05 0"/>
<feBlend mode="normal" in2="effect2_dropShadow_18:8" result="effect3_dropShadow_18:8"/>
<feBlend mode="normal" in="SourceGraphic" in2="effect3_dropShadow_18:8" result="shape"/>
</filter>
<clipPath id="clip0_18:8">
<rect width="100" height="64" fill="white"/>
</clipPath>
</defs>
</svg>
