<svg width="160" height="124" viewBox="0 0 160 124" fill="none" xmlns="http://www.w3.org/2000/svg">
<path d="M18.5852 82.2727H12.0739V91H13.1307V83.2102H17.5284V91H18.5852V82.2727ZM20.5806 93.4545H21.5863V89.9943H21.6715C21.8931 90.3523 22.3192 91.1364 23.5806 91.1364C25.217 91.1364 26.359 89.8239 26.359 87.7443C26.359 85.6818 25.217 84.3693 23.5636 84.3693C22.2852 84.3693 21.8931 85.1534 21.6715 85.4943H21.5522V84.4545H20.5806V93.4545ZM21.5692 87.7273C21.5692 86.2614 22.217 85.2727 23.4442 85.2727C24.7227 85.2727 25.3533 86.3466 25.3533 87.7273C25.3533 89.125 24.7056 90.233 23.4442 90.233C22.234 90.233 21.5692 89.2102 21.5692 87.7273ZM30.5522 91.1364C32.3249 91.1364 33.5181 89.7898 33.5181 87.7614C33.5181 85.7159 32.3249 84.3693 30.5522 84.3693C28.7795 84.3693 27.5863 85.7159 27.5863 87.7614C27.5863 89.7898 28.7795 91.1364 30.5522 91.1364ZM30.5522 90.233C29.2056 90.233 28.592 89.0739 28.592 87.7614C28.592 86.4489 29.2056 85.2727 30.5522 85.2727C31.8988 85.2727 32.5124 86.4489 32.5124 87.7614C32.5124 89.0739 31.8988 90.233 30.5522 90.233ZM37.7976 91.1364C39.1271 91.1364 40.0987 90.4716 40.4055 89.483L39.4339 89.2102C39.1783 89.892 38.5859 90.233 37.7976 90.233C36.6172 90.233 35.8033 89.4702 35.7564 88.0682H40.5078V87.642C40.5078 85.2045 39.0589 84.3693 37.6953 84.3693C35.9226 84.3693 34.7464 85.767 34.7464 87.7784C34.7464 89.7898 35.9055 91.1364 37.7976 91.1364ZM35.7564 87.1989C35.8246 86.1804 36.5447 85.2727 37.6953 85.2727C38.7862 85.2727 39.4851 86.0909 39.4851 87.1989H35.7564ZM42.0376 91H43.0433V88.2386H43.9467L46.0945 91H47.3899L44.7138 87.608L47.3558 84.4545H46.0604L43.7081 87.3011H43.0433V84.4545H42.0376V91ZM48.108 85.392H50.2727V91H51.2784V85.392H53.4261V84.4545H48.108V85.392ZM58.2681 91H61.3533C62.6829 91 63.484 90.25 63.484 89.2443C63.484 88.2173 62.7042 87.6634 61.984 87.5568C62.7212 87.4034 63.2454 86.9901 63.2454 86.1932C63.2454 85.1491 62.3505 84.4545 60.9442 84.4545H58.2681V91ZM59.2227 90.0795V88.0682H61.3533C62.0437 88.0682 62.4613 88.4815 62.4613 89.1591C62.4613 89.7301 62.0437 90.0795 61.3533 90.0795H59.2227ZM59.2227 87.1989V85.375H60.9442C61.7496 85.375 62.2397 85.7116 62.2397 86.2614C62.2397 86.8452 61.7496 87.1989 60.9442 87.1989H59.2227ZM64.5973 89.3295C64.6314 90.4034 65.6584 91.1364 67.0518 91.1364C68.4837 91.1364 69.5234 90.3693 69.5234 89.1761C69.5234 88.358 69.0334 87.6932 68.2962 87.642V87.5739C68.9183 87.3821 69.3871 86.9304 69.3871 86.1932C69.3871 85.1577 68.5007 84.3693 67.12 84.3693C65.7564 84.3693 64.7848 85.1193 64.7507 86.1761H65.8075C65.8374 85.6349 66.4041 85.2557 67.1712 85.2557C67.9339 85.2557 68.3643 85.6435 68.3643 86.2273C68.3643 86.7727 67.9893 87.1818 67.1882 87.1818H66.0632V88.0852H67.1882C67.9893 88.0852 68.5007 88.5241 68.5007 89.1761C68.5007 89.9219 67.8402 90.233 67.0348 90.233C66.2464 90.233 65.718 89.9219 65.6712 89.3295H64.5973ZM72.8622 91.1534C74.0043 91.1534 74.6009 90.5398 74.8054 90.1136H74.8565V91H75.8622V86.6875C75.8622 84.608 74.277 84.3693 73.4418 84.3693C72.4531 84.3693 71.3281 84.7102 70.8168 85.9034L71.7713 86.2443C71.9929 85.767 72.517 85.2557 73.4759 85.2557C74.4006 85.2557 74.8565 85.7457 74.8565 86.5852V86.6193C74.8565 87.1051 74.3622 87.0625 73.169 87.2159C71.9545 87.3736 70.6293 87.642 70.6293 89.142C70.6293 90.4205 71.6179 91.1534 72.8622 91.1534ZM73.0156 90.25C72.2145 90.25 71.6349 89.892 71.6349 89.1932C71.6349 88.4261 72.3338 88.1875 73.1179 88.0852C73.544 88.0341 74.6861 87.9148 74.8565 87.7102V88.6307C74.8565 89.4489 74.2088 90.25 73.0156 90.25ZM78.7035 89.517V84.4545H77.6978V91H78.8739L82.0103 85.9375V91H83.016V84.4545H81.8569L78.7035 89.517ZM88.4375 89.6364L86.1875 84.4545H84.858V91H85.8636V85.8991L88.0284 91H88.8466L91.0114 85.9929V91H92.017V84.4545H90.7216L88.4375 89.6364ZM96.517 91.1364C98.2898 91.1364 99.483 89.7898 99.483 87.7614C99.483 85.7159 98.2898 84.3693 96.517 84.3693C94.7443 84.3693 93.5511 85.7159 93.5511 87.7614C93.5511 89.7898 94.7443 91.1364 96.517 91.1364ZM96.517 90.233C95.1705 90.233 94.5568 89.0739 94.5568 87.7614C94.5568 86.4489 95.1705 85.2727 96.517 85.2727C97.8636 85.2727 98.4773 86.4489 98.4773 87.7614C98.4773 89.0739 97.8636 90.233 96.517 90.233ZM101.018 91H102.024V85.392H105.16V91H106.166V84.4545H101.018V91ZM110.662 91.1364C112.434 91.1364 113.627 89.7898 113.627 87.7614C113.627 85.7159 112.434 84.3693 110.662 84.3693C108.889 84.3693 107.696 85.7159 107.696 87.7614C107.696 89.7898 108.889 91.1364 110.662 91.1364ZM110.662 90.233C109.315 90.233 108.701 89.0739 108.701 87.7614C108.701 86.4489 109.315 85.2727 110.662 85.2727C112.008 85.2727 112.622 86.4489 112.622 87.7614C112.622 89.0739 112.008 90.233 110.662 90.233ZM118.742 89.6364L116.492 84.4545H115.163V91H116.168V85.8991L118.333 91H119.151L121.316 85.9929V91H122.322V84.4545H121.026L118.742 89.6364ZM126.822 91.1364C128.594 91.1364 129.788 89.7898 129.788 87.7614C129.788 85.7159 128.594 84.3693 126.822 84.3693C125.049 84.3693 123.856 85.7159 123.856 87.7614C123.856 89.7898 125.049 91.1364 126.822 91.1364ZM126.822 90.233C125.475 90.233 124.862 89.0739 124.862 87.7614C124.862 86.4489 125.475 85.2727 126.822 85.2727C128.168 85.2727 128.782 86.4489 128.782 87.7614C128.782 89.0739 128.168 90.233 126.822 90.233ZM140.255 90.0625H139.283V84.4545H138.277V90.0625H135.806V84.4545H134.8V90.0625H132.328V84.4545H131.323V91H139.096V92.875H140.135L140.255 90.0625ZM142.723 89.517V84.4545H141.717V91H142.893L146.03 85.9375V91H147.036V84.4545H145.876L142.723 89.517Z" fill="white"/>
<g filter="url(#filter0_ddd_97:80)">
<path d="M30.5966 50H35.9901L38.4805 55.7479L38.6123 55.9863L42.6912 64.3254L42.7675 64.4221L49.3334 50H53.4435H54.7407L54.7615 51.4367L53.8597 51.4816L53.2285 51.5991L52.729 51.8478L52.5764 52.0654L52.455 52.3245L52.3128 52.9429L52.2365 53.993L52.6076 66.3601L52.7498 67.3342L52.9441 67.9111L53.0863 68.1253L53.2805 68.298L53.5441 68.4189L54.1199 68.5917L54.935 68.7126V70H46.7146V68.6987L47.7899 68.5157L48.324 68.298L48.5391 68.1253L48.6813 67.9111L48.7784 67.6279L48.8443 67.3135L48.9206 64.4428L48.8998 55.8239L42.1917 70H41.4391L41.2761 69.5658L34.6443 55.8895L34.5888 56.0623L34.2836 66.9577L34.5229 67.8248L34.6651 68.0631L34.8385 68.2566L35.338 68.5157L35.9589 68.6573L36.3196 68.678C36.4283 68.678 36.493 68.7356 36.5138 68.8507V70H31.5435H30V68.6987H30.2601L30.8914 68.5813L31.1758 68.4846L31.4151 68.3429L31.6094 68.1598L31.9909 67.4102L32.0672 67.12L32.8615 54.4041L32.8372 52.9221L32.6638 52.3452L32.3274 51.9342L31.8487 51.6543L31.2521 51.5023L30.5758 51.416V50H30.5966ZM56.0345 50H70.2033H70.2449L70.616 55.0121L69.4194 55.1296L69.3882 55.0743L69.0066 53.6476L68.5696 52.8116L68.1915 52.4005L67.8759 52.1932L67.3209 51.9791L65.7671 51.72L62.961 51.6854L62.5032 51.7407L62.1668 51.9238L62.0558 52.0758L61.9587 52.4972L61.9378 58.9191L62.0558 58.9744L64.6293 57.8019C64.814 57.7178 65.006 57.6509 65.2029 57.6021L65.3106 57.5754C65.5967 57.5045 65.8927 57.4819 66.1862 57.5088C66.3688 57.5255 66.549 57.5611 66.7242 57.6151L66.8527 57.6548L67.0186 57.7274C67.27 57.8374 67.5064 57.979 67.7222 58.1486L67.8922 58.2822C67.946 58.3244 67.9954 58.3718 68.0399 58.4237C68.0762 58.466 68.109 58.5112 68.1381 58.5588L68.2599 58.758C68.3436 58.895 68.4129 59.0402 68.4668 59.1914L68.4887 59.2529C68.5584 59.4482 68.5961 59.6535 68.6004 59.8608C68.603 59.9835 68.5939 60.1062 68.5731 60.2271L68.5633 60.2844C68.5399 60.4215 68.4995 60.5553 68.4433 60.6826C68.3981 60.7848 68.3429 60.8824 68.2785 60.9738L68.2615 60.9978C68.185 61.1064 68.0978 61.207 68.0012 61.2982L67.651 61.6287C67.6276 61.6508 67.6017 61.6702 67.574 61.6866L67.2737 61.8633C67.212 61.8996 67.1325 61.874 67.1036 61.8086C67.0896 61.7769 67.0901 61.7407 67.1048 61.7094L67.1307 61.6543C67.1486 61.6163 67.1756 61.5833 67.2094 61.5583L67.4527 61.3787L67.7548 61.0934C67.8209 61.031 67.8733 60.9554 67.9087 60.8716C67.9215 60.8412 67.932 60.8099 67.9401 60.778L67.983 60.6087C68.0055 60.5198 67.9932 60.4255 67.9485 60.3453C67.9147 60.2848 67.8641 60.2353 67.8028 60.2028L67.7833 60.1925C67.7504 60.175 67.7153 60.1619 67.6791 60.1534L67.4172 60.092C67.3532 60.077 67.2878 60.0695 67.2221 60.0695C67.1155 60.0695 67.0099 60.0894 66.9106 60.1282L62.961 61.6723L61.9378 61.9521V65.5586L62.0454 66.4913L62.2639 67.3031L62.3402 67.4862L62.5587 67.7799L62.8605 67.9975L63.2316 68.1598L63.6547 68.2358L66.1451 68.2117L68.1672 67.8973L68.9303 67.6382L69.409 67.3239L70.016 66.6537L70.5952 65.6795L71.06 64.5845C71.0692 64.5269 71.1097 64.4877 71.1814 64.467L72.2913 64.7675L71.1918 69.2515L71.1363 69.7075L70.942 70H56.0345V68.8956L56.0865 68.6884L56.8253 68.6366L57.2519 68.5364L57.6092 68.374L57.8832 68.1357L58.0982 67.6071L58.2404 66.9681L58.3167 65.7555L58.2855 60.6222L57.9456 60.1869L57.6647 59.6895L57.5225 59.3198L57.4045 58.6393L57.3802 58.1522L57.5016 57.4924L57.6647 57.1332L57.8832 56.8395L58.2855 56.463V55.1745L58.3167 54.1761L58.2612 53.2123L58.0011 52.1829L57.8069 51.8582L57.6647 51.7407L57.3282 51.568L56.9155 51.4678L56.0345 51.3814V50ZM58.2612 56.9915L57.9595 57.3922L57.8589 57.6548L57.8069 57.9242L57.7826 58.2489L57.8277 58.5633L57.904 58.8224L58.0462 59.0193L58.2196 59.2024L58.2855 59.0193L58.2612 56.9915ZM73.3977 50H81.8158H81.8608V51.416L81.2192 51.5023L80.8793 51.5991L80.5879 51.7303C80.5139 51.7948 80.4561 51.8812 80.4145 51.9894L80.3278 52.3452L80.3486 52.746L80.5671 53.3954L84.0252 59.5582L87.0566 53.8514L87.3931 52.8565L87.4174 52.4661L87.3723 52.0654L87.2197 51.7925C87.1549 51.7211 87.0682 51.6601 86.9595 51.6094L86.6231 51.5127L85.8288 51.4367L85.808 50H92.4397V51.3918L92.3842 51.4367L91.9611 51.4574L91.5795 51.5334L90.9934 51.7925L90.4939 52.1829L89.0267 54.2107L84.9686 61.5411C84.9247 61.6424 84.8992 61.7621 84.8923 61.9003V66.2633L84.9686 67.0544L85.0553 67.4102L85.2738 68.0389L85.4923 68.2773L85.7733 68.4397L86.0889 68.5606L86.4496 68.6366L87.1988 68.678L87.2439 68.7333V70H79.8491H78.9577C78.9068 69.8918 78.8814 69.5485 78.8814 69.4035L78.9022 68.678L79.8387 68.6124L80.1856 68.5157L80.4908 68.374L80.7509 68.2013L80.9244 67.9422L81.0666 67.6486L81.2192 66.9335L81.24 61.7138L76.1413 53.2572L75.1285 52.0862L74.8684 51.8927L74.3134 51.5991L73.977 51.5023L73.4428 51.4367L73.3977 50ZM93.1265 50H101.239L101.26 51.3193C101.246 51.3837 101.199 51.4229 101.118 51.4367L100.41 51.4816L99.8137 51.6302L99.4981 51.8374L99.3767 51.9583L99.2137 52.3038L99.1166 52.7045L99.0195 53.613V66.4257L99.1721 67.5311L99.401 68.0631L99.6299 68.3222L99.7929 68.4189L100.369 68.6124L101.062 68.678L101.26 68.7333V70H101.062H93.1785L93.1265 69.59V68.8197C93.1334 68.7483 93.1727 68.701 93.2444 68.678L93.7231 68.6573L94.3543 68.5157L94.8122 68.2462L95.0272 67.9422L95.2457 67.4102L95.3429 66.7608V53.8859L95.2908 53.202L95.1486 52.5836L94.9301 52.0551L94.67 51.7925L94.3543 51.6094L93.7578 51.4574L93.2652 51.4367C93.1936 51.4298 93.1473 51.3907 93.1265 51.3193V50ZM113.351 50L115 50.6249L116.202 51.2847L116.906 51.7407L117.319 52.1829L117.572 52.5214L117.746 52.9221L118.027 53.7858L118.103 54.5872L118.072 55.6823L117.93 56.4181L117.711 57.0675L117.309 57.8033L116.799 58.4666L116.036 59.1471L115.342 59.6031L114.374 60.0591L115.321 61.1403L124.26 74.6784L126.247 77.0413L126.705 77.4282L127.249 77.7529L127.468 77.8186L127.728 77.8289L127.933 77.7771L128.075 77.6355L128.196 77.4524L128.436 76.834L128.574 76.6924L128.772 76.6164H128.977L129.24 76.6924L129.414 76.8133L129.695 77.1173L129.903 77.4939L130 77.9498L129.979 78.2297L129.903 78.4369L129.781 78.6096L129.455 78.8687L129.24 78.9551L129.001 79H128.533L127.652 78.8169L124.454 77.6804L123.531 77.1588L122.89 76.6406L121.388 74.9721L113.906 63.1439L112.984 62.0385L112.384 61.4858L112.026 61.2613L111.385 61.0436L111.156 61.0643V61.0229H109.415L109.373 61.2371L109.425 66.9231L109.536 67.424L109.751 68.0631L109.893 68.2255L110.23 68.4397L110.677 68.5813L111.6 68.6573V69.6867C111.558 69.7512 111.49 70 111.395 70H103.445V68.7644C103.489 68.6999 103.554 68.6642 103.639 68.6573L104.434 68.5813L104.847 68.4397L105.218 68.2013L105.336 68.0389L105.488 67.6382L105.675 66.6641V53.5059L105.61 53.0085L105.436 52.3245L105.228 51.9445L105.075 51.8063L104.708 51.5991L104.25 51.4816L103.445 51.4056V50H113.351ZM109.654 51.8582C109.545 51.8651 109.452 51.9088 109.373 51.9894V59.5824C109.465 59.633 109.571 59.6618 109.689 59.6687L110.795 59.5582L112.307 59.0815L113.07 58.6289L113.493 58.2386L113.951 57.5028L114.166 56.9293L114.309 56.2661L114.354 55.5095L114.191 54.0794L114.09 53.7858L113.646 53.0292L113.448 52.822L112.984 52.4869L112.449 52.2071L111.839 51.9998L110.438 51.8271L109.654 51.8582Z" fill="white"/>
<path fill-rule="evenodd" clip-rule="evenodd" d="M74.0501 30.3563C71.3122 26.599 67.5978 24.174 66.0574 23.2707C66.0175 23.2477 65.9768 23.2294 65.9351 23.2164C65.6108 23.1135 65.2492 23.3093 65.179 23.6615C64.4138 27.5335 64.037 31.6214 64.8924 35.5129C65.7838 39.5665 68.1151 42.8179 71.8051 44.7096C69.7878 41.704 68.4268 38.5802 67.5376 35.0813C67.4314 34.6626 67.8688 34.7825 67.9928 35.0461C69.3282 37.9045 70.9146 40.3968 73.026 42.7532C73.183 42.9282 73.346 43.0954 73.5094 43.2587C72.6627 40.4763 72.0171 36.1987 73.6465 31.4247C73.7691 31.0651 73.9057 30.7094 74.0501 30.3563ZM79.1982 45.0736C82.4282 44.1264 85.4714 42.2351 87.8499 39.8644C91.5313 36.1961 93.6735 31.2844 94.7292 26.2494C95.4485 22.819 95.7238 19.2658 95.5426 15.7642C95.5244 15.4085 95.2846 15.1345 94.979 15.0381C94.8073 14.9834 94.6148 14.9851 94.4288 15.0598C69.378 25.1163 73.5519 40.2835 75.405 44.6719C75.64 44.469 75.8984 44.2345 76.1824 43.974C77.0113 43.1836 77.8056 42.3572 78.5682 41.5021C84.1547 35.2398 88.4504 27.9587 92.5163 20.6528C92.577 20.5434 92.7088 20.5061 92.8133 20.5638C92.9122 20.619 92.9512 20.7406 92.9061 20.8422C91.4285 24.1918 89.2859 29.6441 86.5262 34.4081C83.177 40.1897 79.281 45.0492 79.1982 45.0736Z" fill="white"/>
</g>
<defs>
<filter id="filter0_ddd_97:80" x="0" y="0" width="160" height="124" filterUnits="userSpaceOnUse" color-interpolation-filters="sRGB">
<feFlood flood-opacity="0" result="BackgroundImageFix"/>
<feColorMatrix in="SourceAlpha" type="matrix" values="0 0 0 0 0 0 0 0 0 0 0 0 0 0 0 0 0 0 127 0" result="hardAlpha"/>
<feOffset dy="15"/>
<feGaussianBlur stdDeviation="15"/>
<feColorMatrix type="matrix" values="0 0 0 0 0 0 0 0 0 0 0 0 0 0 0 0 0 0 0.05 0"/>
<feBlend mode="normal" in2="BackgroundImageFix" result="effect1_dropShadow_97:80"/>
<feColorMatrix in="SourceAlpha" type="matrix" values="0 0 0 0 0 0 0 0 0 0 0 0 0 0 0 0 0 0 127 0" result="hardAlpha"/>
<feOffset dy="3"/>
<feGaussianBlur stdDeviation="3"/>
<feColorMatrix type="matrix" values="0 0 0 0 0 0 0 0 0 0 0 0 0 0 0 0 0 0 0.05 0"/>
<feBlend mode="normal" in2="effect1_dropShadow_97:80" result="effect2_dropShadow_97:80"/>
<feColorMatrix in="SourceAlpha" type="matrix" values="0 0 0 0 0 0 0 0 0 0 0 0 0 0 0 0 0 0 127 0" result="hardAlpha"/>
<feOffset dy="1"/>
<feGaussianBlur stdDeviation="1"/>
<feColorMatrix type="matrix" values="0 0 0 0 0 0 0 0 0 0 0 0 0 0 0 0 0 0 0.05 0"/>
<feBlend mode="normal" in2="effect2_dropShadow_97:80" result="effect3_dropShadow_97:80"/>
<feBlend mode="normal" in="SourceGraphic" in2="effect3_dropShadow_97:80" result="shape"/>
</filter>
</defs>
</svg>
