<svg width="28" height="28" viewBox="0 0 28 28" fill="none" xmlns="http://www.w3.org/2000/svg">
<path d="M7.625 1.25H20.3807C23.8982 1.25 26.75 4.10175 26.75 7.61933V20.3821C26.75 23.8982 23.8982 26.75 20.3807 26.75H7.61933C4.10175 26.75 1.25 23.8982 1.25 20.3807V7.625C1.25 4.10458 4.10458 1.25 7.625 1.25V1.25Z" stroke="#0088CC" stroke-width="1.5" stroke-linecap="round" stroke-linejoin="round"/>
<path d="M11.2998 18.9456L10.1495 15.1574C10.1481 15.156 6.85433 14.1289 6.85433 14.1289C6.4775 14.0113 6.45908 13.4829 6.82883 13.3413L19.3678 8.50476C19.831 8.32626 20.3084 8.73284 20.2064 9.21876L18.0998 19.1468C17.9766 19.729 17.2923 19.9883 16.8149 19.6341L13.8229 17.4241L12.0592 19.1411C11.8112 19.3791 11.4004 19.2728 11.2998 18.9456V18.9456Z" stroke="#0088CC" stroke-width="1.5" stroke-linecap="round" stroke-linejoin="round"/>
</svg>
