<svg width="34" height="34" viewBox="0 0 34 34" fill="none" xmlns="http://www.w3.org/2000/svg">
<path d="M25.789 8.16299C23.4572 5.82974 20.3561 4.54341 17.0524 4.54199C10.2425 4.54199 4.70192 10.0797 4.70051 16.8868C4.69767 19.0529 5.26576 21.1822 6.34809 23.0592L4.59567 29.4569L11.1435 27.7399C12.9554 28.7259 14.9841 29.243 17.0468 29.243H17.0524C23.8595 29.243 29.4001 23.7038 29.4029 16.8967C29.4043 13.5987 28.1208 10.4977 25.789 8.16299Z" stroke="#43D854" stroke-width="1.5" stroke-linecap="round" stroke-linejoin="round"/>
<path d="M18.5512 19.2099L19.1264 18.6389C19.6548 18.1148 20.4907 18.0482 21.0998 18.476C21.6892 18.8897 22.2218 19.2609 22.7177 19.6065C23.5053 20.1534 23.6002 21.2754 22.9217 21.9525L22.4131 22.4611" stroke="#43D854" stroke-width="1.5" stroke-linecap="round" stroke-linejoin="round"/>
<path d="M11.5388 11.5871L12.0474 11.0785C12.7245 10.4013 13.8465 10.4962 14.3934 11.2825C14.7376 11.7783 15.1088 12.311 15.5239 12.9003C15.9517 13.5095 15.8865 14.3453 15.361 14.8737L14.79 15.4489" stroke="#43D854" stroke-width="1.5" stroke-linecap="round" stroke-linejoin="round"/>
<path d="M22.4131 22.4614C20.315 24.5496 16.789 22.7759 14.0052 19.9907" stroke="#43D854" stroke-width="1.5" stroke-linecap="round" stroke-linejoin="round"/>
<path d="M14.008 19.9948C11.2243 17.2097 9.45062 13.685 11.5388 11.5869" stroke="#43D854" stroke-width="1.5" stroke-linecap="round" stroke-linejoin="round"/>
<path d="M14.79 15.4487C15.242 16.1613 15.8214 16.8668 16.4759 17.5213L16.4787 17.5241C17.1332 18.1786 17.8387 18.7581 18.5513 19.21" stroke="#43D854" stroke-width="1.5" stroke-linecap="round" stroke-linejoin="round"/>
</svg>
